<svg height='100px' width='100px'  fill="#000000" xmlns="http://www.w3.org/2000/svg" xmlns:xlink="http://www.w3.org/1999/xlink" version="1.1" x="0px" y="0px" viewBox="0 0 1024 1024" style="enable-background:new 0 0 1024 1024;" xml:space="preserve"><g><g><g><path d="M933,841.4c-26.6,26.6-53.2,53.2-79.8,79.8c-3.8,3.8-7.6,7.6-11.5,11.5c14.1,0,28.3,0,42.4,0     c-22.1-22.1-44.2-44.2-66.3-66.3c-35.2-35.2-70.4-70.4-105.6-105.6c-8-8-16-16-24-24c-14-14-37-10.3-47.1,6.1     c-25.9,41.6-51.8,83.2-77.7,124.8c-3.6,5.8-7.2,11.6-10.8,17.4c18.3,2.4,36.6,4.8,54.8,7.2c-5.2-15.9-10.5-31.8-15.7-47.7     c-12.6-38.3-25.3-76.7-37.9-115c-15.2-46.2-30.5-92.4-45.7-138.7c-13.2-40.1-26.4-80.1-39.6-120.2c-6.4-19.3-12.2-38.9-19.1-58.1     c-0.1-0.3-0.2-0.5-0.3-0.8c-12.3,12.3-24.6,24.6-36.9,36.9c15.9,5.2,31.8,10.5,47.7,15.7c38.3,12.6,76.6,25.3,115,37.9     c46.2,15.2,92.4,30.5,138.6,45.7c40.1,13.2,80.1,26.4,120.2,39.6c19.3,6.4,38.6,13.3,58.1,19.2c0.3,0.1,0.5,0.2,0.8,0.3     c-2.4-18.3-4.8-36.6-7.2-54.8c-41.6,25.9-83.3,51.9-124.9,77.8c-5.8,3.6-11.6,7.2-17.4,10.8c-16.3,10.2-20,33.1-6.1,47.1     c22.1,22.1,44.2,44.2,66.3,66.3c35.2,35.2,70.4,70.4,105.6,105.6c8,8,16,16,24,24c11.1,11.1,31.5,11.9,42.4,0     c11-12,11.9-30.6,0-42.4c-22.1-22.1-44.2-44.2-66.3-66.3c-35.2-35.2-70.4-70.4-105.6-105.6c-8-8-16-16-24-24     c-2,15.7-4,31.4-6.1,47.1c41.6-25.9,83.3-51.9,124.9-77.8c5.8-3.6,11.6-7.2,17.4-10.8c10.3-6.4,15.9-17.8,14.3-29.9     c-1.6-12.1-10-21.1-21.5-24.9c-15.9-5.2-31.8-10.5-47.7-15.7c-38.3-12.6-76.6-25.3-115-37.9c-46.2-15.2-92.4-30.5-138.6-45.7     c-40.1-13.2-80.1-26.4-120.2-39.6c-19.3-6.4-38.6-13.3-58.1-19.2c-0.3-0.1-0.5-0.2-0.8-0.3c-21.3-7-43.9,15.7-36.9,36.9     c5.2,15.9,10.5,31.8,15.7,47.7c12.6,38.3,25.3,76.7,37.9,115c15.2,46.2,30.5,92.4,45.7,138.7c13.2,40.1,26.4,80.1,39.6,120.2     c6.4,19.4,12.4,38.9,19.1,58.1c0.1,0.3,0.2,0.5,0.3,0.8c3.8,11.5,12.7,19.8,24.9,21.5c12,1.6,23.5-4,29.9-14.3     c25.9-41.6,51.8-83.2,77.7-124.8c3.6-5.8,7.2-11.6,10.8-17.4c-15.7,2-31.4,4-47.1,6.1c22.1,22.1,44.2,44.2,66.3,66.3     c35.2,35.2,70.4,70.4,105.6,105.6c8,8,16,16,24,24c11.5,11.5,30.9,11.5,42.4,0c26.6-26.6,53.2-53.2,79.8-79.8     c3.8-3.8,7.6-7.6,11.5-11.5c11.1-11.1,11.9-31.5,0-42.4C963.5,830.4,944.9,829.6,933,841.4z"></path></g></g><g><g><path d="M152,194.1c29,29,58,58,87,87c4.1,4.1,8.2,8.2,12.3,12.3c11.1,11.1,31.5,11.9,42.4,0     c11-12,11.9-30.6,0-42.4c-29-29-58-58-87-87c-4.1-4.1-8.2-8.2-12.3-12.3c-11.1-11.1-31.5-11.9-42.4,0     C141,163.6,140.1,182.2,152,194.1L152,194.1z"></path></g></g><g><g><path d="M195.8,692c29-29,58-58,87-87c4.1-4.1,8.2-8.2,12.3-12.3c11.1-11.1,11.9-31.5,0-42.4     c-12-11-30.6-11.9-42.4,0c-29,29-58,58-87,87c-4.1,4.1-8.2,8.2-12.3,12.3c-11.1,11.1-11.9,31.5,0,42.4     C165.3,703,183.9,703.8,195.8,692L195.8,692z"></path></g></g><g><g><path d="M594.3,293.4c29-29,58-58,87-87c4.1-4.1,8.2-8.2,12.3-12.3c11.1-11.1,11.9-31.5,0-42.4     c-12-11-30.6-11.9-42.4,0c-29,29-58,58-87,87c-4.1,4.1-8.2,8.2-12.3,12.3c-11.1,11.1-11.9,31.5,0,42.4     C563.9,304.4,582.5,305.3,594.3,293.4L594.3,293.4z"></path></g></g><g><g><path d="M69.8,451.2c41,0,82,0,123,0c5.8,0,11.6,0,17.5,0c15.7,0,30.7-13.8,30-30c-0.7-16.3-13.2-30-30-30     c-41,0-82,0-123,0c-5.8,0-11.6,0-17.5,0c-15.7,0-30.7,13.8-30,30C40.5,437.4,53,451.2,69.8,451.2L69.8,451.2z"></path></g></g><g><g><path d="M452.8,210.5c0-41,0-82,0-123c0-5.8,0-11.6,0-17.5c0-15.7-13.8-30.7-30-30c-16.3,0.7-30,13.2-30,30     c0,41,0,82,0,123c0,5.8,0,11.6,0,17.5c0,15.7,13.8,30.7,30,30C439,239.8,452.8,227.4,452.8,210.5L452.8,210.5z"></path></g></g></g></svg>