<svg height='100px' width='100px'  fill="#000000" xmlns="http://www.w3.org/2000/svg" xmlns:xlink="http://www.w3.org/1999/xlink" version="1.1" x="0px" y="0px" viewBox="0 0 85 85" style="enable-background:new 0 0 85 85;" xml:space="preserve"><path d="M40.5,20.7C30.4,20.7,22,28.9,22,39v25.7c0,10.1,8.4,18.3,18.5,18.3S59,74.8,59,64.7V39C59,28.9,50.6,20.7,40.5,20.7z   M40.5,80.5c-8.7,0-15.5-7.1-15.5-15.8V39c0-8.7,6.8-15.8,15.5-15.8S56,30.3,56,39v25.7C56,73.4,49.2,80.5,40.5,80.5z M43,40.5  c0,0.8-0.7,1.5-1.5,1.5h-1.1c-0.8,0-1.5-0.7-1.5-1.5v-5.1c0-0.8,0.7-1.5,1.5-1.5h1.1c0.8,0,1.5,0.7,1.5,1.5V40.5z M16.2,21.3  c-0.3,0.2-0.5,0.5-0.5,0.9c0,0.6,0.4,1.2,1.1,1.2l7,0.4c0.6,0,1.2-0.4,1.2-1.1c0-0.6-0.4-1.2-1.1-1.2l-7-0.4  C16.6,21.1,16.4,21.2,16.2,21.3z M40.5,9.2c-0.2,0.1-0.4,0.2-0.5,0.4l-3.9,5.9c-0.4,0.5-0.2,1.3,0.3,1.6c0.5,0.4,1.3,0.2,1.6-0.3  l3.9-5.9c0.4-0.5,0.2-1.3-0.3-1.6C41.2,9,40.8,9,40.5,9.2z M25,8.4c-0.6,0.3-0.8,1-0.5,1.6l3.1,6.3c0.3,0.6,1,0.8,1.6,0.5  c0.6-0.3,0.8-1,0.5-1.6l-3.1-6.3C26.3,8.3,25.6,8.1,25,8.4z"></path></svg>