<svg height='100px' width='100px'  fill="#000000" xmlns:dc="http://purl.org/dc/elements/1.1/" xmlns:cc="http://creativecommons.org/ns#" xmlns:rdf="http://www.w3.org/1999/02/22-rdf-syntax-ns#" xmlns:svg="http://www.w3.org/2000/svg" xmlns="http://www.w3.org/2000/svg" xmlns:sodipodi="http://sodipodi.sourceforge.net/DTD/sodipodi-0.dtd" xmlns:inkscape="http://www.inkscape.org/namespaces/inkscape" version="1.1" x="0px" y="0px" viewBox="0 0 100 100"><g transform="translate(0,-952.36218)"><path style="text-indent:0;text-transform:none;direction:ltr;block-progression:tb;baseline-shift:baseline;color:#000000;enable-background:accumulate;" d="m 50,961.36217 c -8.8129,0 -16,7.1872 -16,16 0,4.7053 2.0613,8.943 5.3125,11.875 L 27.875,1012.1434 c -1.54,-0.4955 -3.1739,-0.7812 -4.875,-0.7812 -8.8129,0 -16,7.1873 -16,16 0,8.8128 7.1871,16 16,16 8.1402,0 14.8603,-6.119 15.8438,-14 l 22.3124,0 c 0.9835,7.881 7.7036,14 15.8438,14 8.8129,0 16,-7.1872 16,-16 0,-8.8127 -7.1871,-16 -16,-16 -1.7011,0 -3.335,0.2857 -4.875,0.7812 L 60.6875,989.23717 c 3.2512,-2.932 5.3125,-7.1697 5.3125,-11.875 0,-8.8128 -7.1871,-16 -16,-16 z m -7.375,30.1875 c 2.2082,1.1531 4.7193,1.8125 7.375,1.8125 2.6557,0 5.1668,-0.6594 7.375,-1.8125 l 11.1562,22.28133 c -3.9737,2.4958 -6.761,6.6712 -7.375,11.5312 l -22.3124,0 c -0.614,-4.86 -3.4013,-9.0354 -7.375,-11.5312 L 42.625,991.54967 z" fill="#000000" fill-opacity="1" stroke="none" marker="none" visibility="visible" display="inline" overflow="visible"></path></g></svg>