<svg height='100px' width='100px'  fill="#000000" xmlns="http://www.w3.org/2000/svg" xmlns:xlink="http://www.w3.org/1999/xlink" version="1.1" x="0px" y="0px" viewBox="0 0 100 100" style="enable-background:new 0 0 100 100;" xml:space="preserve"><g><g><g><path d="M93.4,96.5c-1.9,0-3.7-0.8-5.1-2.1L41.8,47.9c-0.4-0.4-0.4-1.2,0-1.6l8.6-8.6c0.4-0.4,1.2-0.4,1.6,0     l46.5,46.5c1.4,1.4,2.1,3.2,2.1,5.1c0,1.9-0.8,3.7-2.1,5.1C97.1,95.7,95.3,96.5,93.4,96.5z M44.2,47.1l45.7,45.7     c0.9,0.9,2.2,1.4,3.5,1.4c1.3,0,2.6-0.5,3.5-1.4c1.9-1.9,1.9-5.1,0-7L51.2,40.1L44.2,47.1z"></path></g><g><path d="M42.6,48.2c-0.5,0-0.9-0.3-1.1-0.7l-5.2-13.8c-0.2-0.4-0.1-0.9,0.3-1.2c0.3-0.3,0.8-0.4,1.2-0.3     l13.8,5.2c0.6,0.2,0.9,0.9,0.7,1.5c-0.2,0.6-0.9,0.9-1.5,0.7l-11.4-4.3l4.3,11.4c0.2,0.6-0.1,1.3-0.7,1.5     C42.9,48.2,42.8,48.2,42.6,48.2z"></path></g><g><path d="M84.4,90c-0.3,0-0.6-0.1-0.8-0.3c-0.4-0.4-0.4-1.2,0-1.6l8.6-8.6c0.4-0.4,1.2-0.4,1.6,0     c0.4,0.4,0.4,1.2,0,1.6l-8.6,8.6C85,89.9,84.7,90,84.4,90z"></path></g></g><g><path d="M79.4,91.4H8.8V0h52.3c4.1,0,7.4,3.3,7.4,7.4v10.3h10.3c4.1,0,7.4,3.3,7.4,7.4v40.6    c0,0.6-0.5,1.1-1.1,1.1c-0.6,0-1.1-0.5-1.1-1.1V25c0-2.8-2.3-5.1-5.1-5.1H66.2V7.4c0-2.8-2.3-5.1-5.1-5.1h-50v86.9h68.3    c0.6,0,1.1,0.5,1.1,1.1C80.5,90.9,80,91.4,79.4,91.4z"></path></g><g><path d="M75.6,100H-0.6V8.9H10c0.6,0,1.1,0.5,1.1,1.1s-0.5,1.1-1.1,1.1H1.7v86.5h71.6v-7.4    c0-0.6,0.5-1.1,1.1-1.1c0.6,0,1.1,0.5,1.1,1.1V100z"></path></g><g><path d="M33.2,34.5H19.6c-0.6,0-1.1-0.5-1.1-1.1c0-0.6,0.5-1.1,1.1-1.1h13.6c0.6,0,1.1,0.5,1.1,1.1    C34.4,34,33.8,34.5,33.2,34.5z"></path></g><g><path d="M35.6,42.2h-16c-0.6,0-1.1-0.5-1.1-1.1c0-0.6,0.5-1.1,1.1-1.1h16c0.6,0,1.1,0.5,1.1,1.1    C36.8,41.7,36.3,42.2,35.6,42.2z"></path></g><g><path d="M38.3,50.5H19.6c-0.6,0-1.1-0.5-1.1-1.1c0-0.6,0.5-1.1,1.1-1.1h18.7c0.6,0,1.1,0.5,1.1,1.1    C39.4,50,38.9,50.5,38.3,50.5z"></path></g></g></svg>